<?xml version="1.0" standalone="no"?>
<!DOCTYPE svg PUBLIC "-//W3C//DTD SVG 20010904//EN"
 "http://www.w3.org/TR/2001/REC-SVG-20010904/DTD/svg10.dtd">
<svg version="1.0" xmlns="http://www.w3.org/2000/svg"
 width="700.000000pt" height="700.000000pt" viewBox="0 0 700.000000 700.000000"
 preserveAspectRatio="xMidYMid meet">
<metadata>
Created by potrace 1.11, written by Peter Selinger 2001-2013
</metadata>
<g transform="translate(0.000000,700.000000) scale(0.100000,-0.100000)"
fill="#000000" stroke="none">
<path d="M3468 6485 c-2 -2 -28 -6 -58 -9 -30 -3 -80 -11 -110 -16 -30 -5 -73
-12 -95 -16 -88 -13 -289 -71 -411 -117 -114 -44 -305 -135 -390 -187 -36 -22
-68 -40 -70 -40 -5 0 -89 -56 -184 -124 -150 -106 -267 -206 -440 -376 -69
-67 -103 -104 -220 -235 -38 -43 -261 -338 -257 -341 1 -1 115 -66 252 -143
138 -78 257 -146 265 -151 51 -30 377 -216 385 -219 6 -2 26 -14 45 -26 56
-35 130 -75 139 -75 4 0 15 17 25 38 97 205 361 480 616 639 185 115 450 218
614 238 27 3 53 8 59 12 17 10 356 13 427 3 350 -47 624 -177 855 -405 344
-338 520 -815 510 -1375 -4 -204 -6 -235 -31 -365 -36 -188 -102 -381 -185
-543 -54 -105 -160 -266 -216 -328 -21 -23 -50 -55 -64 -70 -122 -136 -332
-281 -519 -359 -120 -51 -265 -91 -400 -110 -25 -3 -58 -8 -73 -11 -46 -7
-226 -7 -297 0 -328 35 -616 133 -836 285 -109 75 -228 189 -286 274 -32 48
-42 56 -57 48 -18 -10 -175 -101 -596 -346 -121 -70 -267 -155 -325 -188 -58
-33 -107 -62 -109 -64 -13 -9 412 -447 524 -540 311 -258 593 -408 960 -512
101 -28 215 -54 282 -65 16 -2 48 -8 73 -11 25 -4 54 -9 65 -11 11 -2 45 -6
75 -9 30 -3 66 -8 80 -10 34 -6 157 -15 260 -19 222 -8 664 54 962 134 857
232 1442 722 1731 1450 43 107 110 323 122 391 3 16 12 60 19 97 12 58 25 137
41 257 14 108 20 276 20 595 0 326 -4 437 -20 548 -2 18 -9 67 -15 110 -6 43
-12 87 -15 98 -41 196 -72 307 -127 458 -240 657 -715 1166 -1361 1458 -122
55 -386 150 -449 162 -15 2 -31 7 -36 9 -12 8 -301 66 -357 72 -27 3 -61 8
-75 10 -23 5 -57 8 -205 21 -69 6 -512 14 -517 9z"/>
<path d="M350 3365 l0 -1854 103 61 c56 33 118 69 137 80 19 11 60 35 90 53
65 39 449 264 500 292 19 11 80 47 135 80 55 33 264 156 465 273 201 117 381
223 400 235 19 12 211 125 425 250 215 125 482 282 595 348 113 66 217 127
232 136 16 9 28 19 28 23 0 5 -169 111 -210 130 -8 4 -77 46 -153 93 -76 47
-142 85 -148 85 -5 0 -9 5 -9 10 0 6 -4 10 -8 10 -8 0 -144 81 -763 455 -182
110 -348 210 -368 221 -41 24 -78 47 -444 267 -144 87 -271 164 -282 170 -11
7 -44 27 -75 46 -30 19 -68 42 -85 51 -16 10 -150 90 -297 178 l-268 161 0
-1854z"/>
</g>
</svg>
